<?xml version="1.0" encoding="utf-8"?>
<!-- Generator: Adobe Illustrator 27.8.0, SVG Export Plug-In . SVG Version: 6.00 Build 0)  -->
<svg version="1.1" id="Layer_1" xmlns="http://www.w3.org/2000/svg" xmlns:xlink="http://www.w3.org/1999/xlink" x="0px" y="0px"
	 viewBox="0 0 1024 1024" style="enable-background:new 0 0 1024 1024;" xml:space="preserve">
<style type="text/css">
	.st0{fill:#FFFFFF;}
</style>
<g>
	<g>
		<path class="st0" d="M303.5,911.7c-12.4-0.7-12.4-0.3-12.4-13.3c0-126.6,0-253.2,0.1-379.8c0.1-132.1,0.2-264.1,0.3-396.2
			c0-14.9,1-16,15.4-17.7c110-13.1,220-26.1,330-39.2c22.9-2.7,45.8-7.4,68.7-7.7c19.8-0.3,39.7,4,59.4,7.2c6.8,1.1,7.5,8,7.5,14
			c0.1,24.3,0.1,48.6,0.1,72.9c0.3,220.4,0.6,440.8,0.9,661.2c0.1,38.6,0.9,75.6,0.9,114.2c-0.8,9-6.4,14.7-17.3,15.9
			c-13.6,1.2-27.2,2.8-40.8,3.5C716.3,946.6,337.1,913.6,303.5,911.7z"/>
		<path d="M710.9,940.4c-2.7-2.7-2.9-5.7-2.9-9.3c0.5-284.7,1.5-839.6,1.6-854.1s0-16.4,16.4-14.1c10.8,1.5,21.7,3.1,32.4,4.9
			c8,1.1,10.4,4.5,10.4,12.3c-0.1,61.9,0.1,125.5,0.3,187.4c0.6,197,1.9,643.2,1.9,658c0,12.6-9.6,13-13.6,13.7
			c-9.2,1.6-39,3.4-39,3.4S713.6,943,710.9,940.4z"/>
	</g>
</g>
</svg>
